<svg class="displayed_equation" height="230.48pt" version="1.1" viewBox="0 0 229.01 230.48" width="229.01pt" xmlns="http://www.w3.org/2000/svg" xmlns:xlink="http://www.w3.org/1999/xlink"><defs><clippath id="svg463157403450tikz_00001clip1"><path d="M 9 11 L 212 11 L 212 229.980469 L 9 229.980469 Z M 9 11 "></path></clippath></defs><g id="svg463157403450tikz_00001surface1"><path d="M 128.984375 129.64375 L 2023.789063 129.64375 M 128.984375 167.534375 L 2023.789063 167.534375 M 128.984375 205.425 L 2023.789063 205.425 M 128.984375 243.315625 L 2023.789063 243.315625 M 128.984375 281.20625 L 2023.789063 281.20625 M 128.984375 319.096875 L 2023.789063 319.096875 M 128.984375 356.9875 L 2023.789063 356.9875 M 128.984375 394.878125 L 2023.789063 394.878125 M 128.984375 432.807813 L 2023.789063 432.807813 M 128.984375 470.698438 L 2023.789063 470.698438 M 128.984375 508.589063 L 2023.789063 508.589063 M 128.984375 546.479688 L 2023.789063 546.479688 M 128.984375 584.370313 L 2023.789063 584.370313 M 128.984375 622.260938 L 2023.789063 622.260938 M 128.984375 660.151563 L 2023.789063 660.151563 M 128.984375 698.08125 L 2023.789063 698.08125 M 128.984375 735.971875 L 2023.789063 735.971875 M 128.984375 773.8625 L 2023.789063 773.8625 M 128.984375 811.753125 L 2023.789063 811.753125 M 128.984375 849.64375 L 2023.789063 849.64375 M 128.984375 887.534375 L 2023.789063 887.534375 M 128.984375 925.425 L 2023.789063 925.425 M 128.984375 963.315625 L 2023.789063 963.315625 M 128.984375 1001.245313 L 2023.789063 1001.245313 M 128.984375 1039.135938 L 2023.789063 1039.135938 M 128.984375 1077.026563 L 2023.789063 1077.026563 M 128.984375 1114.917188 L 2023.789063 1114.917188 M 128.984375 1152.807813 L 2023.789063 1152.807813 M 128.984375 1190.698438 L 2023.789063 1190.698438 M 128.984375 1228.589063 L 2023.789063 1228.589063 M 128.984375 1266.51875 L 2023.789063 1266.51875 M 128.984375 1304.409375 L 2023.789063 1304.409375 M 128.984375 1342.3 L 2023.789063 1342.3 M 128.984375 1380.190625 L 2023.789063 1380.190625 M 128.984375 1418.08125 L 2023.789063 1418.08125 M 128.984375 1455.971875 L 2023.789063 1455.971875 M 128.984375 1493.8625 L 2023.789063 1493.8625 M 128.984375 1531.753125 L 2023.789063 1531.753125 M 128.984375 1569.64375 L 2023.789063 1569.64375 M 128.984375 1607.573438 L 2023.789063 1607.573438 M 128.984375 1645.464063 L 2023.789063 1645.464063 M 128.984375 1683.354688 L 2023.789063 1683.354688 M 128.984375 1721.245313 L 2023.789063 1721.245313 M 128.984375 1759.135938 L 2023.789063 1759.135938 M 128.984375 1797.026563 L 2023.789063 1797.026563 M 128.984375 1834.95625 L 2023.789063 1834.95625 M 128.984375 1872.846875 L 2023.789063 1872.846875 M 128.984375 1910.7375 L 2023.789063 1910.7375 M 128.984375 1948.628125 L 2023.789063 1948.628125 M 128.984375 1986.51875 L 2023.789063 1986.51875 M 128.984375 2024.409375 L 2023.789063 2024.409375 M 128.984375 129.604688 L 128.984375 2024.448438 M 166.875 129.604688 L 166.875 2024.448438 M 204.765625 129.604688 L 204.765625 2024.448438 M 242.65625 129.604688 L 242.65625 2024.448438 M 280.585938 129.604688 L 280.585938 2024.448438 M 318.476563 129.604688 L 318.476563 2024.448438 M 356.367188 129.604688 L 356.367188 2024.448438 M 394.257813 129.604688 L 394.257813 2024.448438 M 432.148438 129.604688 L 432.148438 2024.448438 M 470.039063 129.604688 L 470.039063 2024.448438 M 507.929688 129.604688 L 507.929688 2024.448438 M 545.859375 129.604688 L 545.859375 2024.448438 M 583.75 129.604688 L 583.75 2024.448438 M 621.640625 129.604688 L 621.640625 2024.448438 M 659.53125 129.604688 L 659.53125 2024.448438 M 697.421875 129.604688 L 697.421875 2024.448438 M 735.3125 129.604688 L 735.3125 2024.448438 M 773.203125 129.604688 L 773.203125 2024.448438 M 811.09375 129.604688 L 811.09375 2024.448438 M 849.023438 129.604688 L 849.023438 2024.448438 M 886.914063 129.604688 L 886.914063 2024.448438 M 924.804688 129.604688 L 924.804688 2024.448438 M 962.695313 129.604688 L 962.695313 2024.448438 M 1000.585938 129.604688 L 1000.585938 2024.448438 M 1038.476563 129.604688 L 1038.476563 2024.448438 M 1076.367188 129.604688 L 1076.367188 2024.448438 M 1114.296875 129.604688 L 1114.296875 2024.448438 M 1152.1875 129.604688 L 1152.1875 2024.448438 M 1190.078125 129.604688 L 1190.078125 2024.448438 M 1227.96875 129.604688 L 1227.96875 2024.448438 M 1265.859375 129.604688 L 1265.859375 2024.448438 M 1303.75 129.604688 L 1303.75 2024.448438 M 1341.640625 129.604688 L 1341.640625 2024.448438 M 1379.53125 129.604688 L 1379.53125 2024.448438 M 1417.421875 129.604688 L 1417.421875 2024.448438 M 1455.351563 129.604688 L 1455.351563 2024.448438 M 1493.242188 129.604688 L 1493.242188 2024.448438 M 1531.132813 129.604688 L 1531.132813 2024.448438 M 1569.023438 129.604688 L 1569.023438 2024.448438 M 1606.914063 129.604688 L 1606.914063 2024.448438 M 1644.804688 129.604688 L 1644.804688 2024.448438 M 1682.695313 129.604688 L 1682.695313 2024.448438 M 1720.625 129.604688 L 1720.625 2024.448438 M 1758.515625 129.604688 L 1758.515625 2024.448438 M 1796.40625 129.604688 L 1796.40625 2024.448438 M 1834.296875 129.604688 L 1834.296875 2024.448438 M 1872.1875 129.604688 L 1872.1875 2024.448438 M 1910.078125 129.604688 L 1910.078125 2024.448438 M 1947.96875 129.604688 L 1947.96875 2024.448438 M 1985.898438 129.604688 L 1985.898438 2024.448438 M 2023.789063 129.604688 L 2023.789063 2024.448438 " style="fill:none;stroke-width:3.985;stroke-linecap:butt;stroke-linejoin:miter;stroke:rgb(90.039063%,90.039063%,90.039063%);stroke-opacity:1;stroke-miterlimit:10;" transform="matrix(0.1,0,0,-0.1,0,230.48)"></path><path d="M 128.984375 129.604688 L 2023.789063 129.604688 M 128.984375 319.096875 L 2023.789063 319.096875 M 128.984375 508.589063 L 2023.789063 508.589063 M 128.984375 698.042188 L 2023.789063 698.042188 M 128.984375 887.534375 L 2023.789063 887.534375 M 128.984375 1077.026563 L 2023.789063 1077.026563 M 128.984375 1266.51875 L 2023.789063 1266.51875 M 128.984375 1455.971875 L 2023.789063 1455.971875 M 128.984375 1645.464063 L 2023.789063 1645.464063 M 128.984375 1834.95625 L 2023.789063 1834.95625 M 128.984375 2024.370313 L 2023.789063 2024.370313 M 128.984375 129.604688 L 128.984375 2024.448438 M 318.4375 129.604688 L 318.4375 2024.448438 M 507.929688 129.604688 L 507.929688 2024.448438 M 697.421875 129.604688 L 697.421875 2024.448438 M 886.914063 129.604688 L 886.914063 2024.448438 M 1076.367188 129.604688 L 1076.367188 2024.448438 M 1265.859375 129.604688 L 1265.859375 2024.448438 M 1455.351563 129.604688 L 1455.351563 2024.448438 M 1644.804688 129.604688 L 1644.804688 2024.448438 M 1834.296875 129.604688 L 1834.296875 2024.448438 M 2023.710938 129.604688 L 2023.710938 2024.448438 " style="fill:none;stroke-width:3.985;stroke-linecap:butt;stroke-linejoin:miter;stroke:rgb(75%,75%,75%);stroke-opacity:1;stroke-miterlimit:10;" transform="matrix(0.1,0,0,-0.1,0,230.48)"></path><path d="M 178.945313 1077.026563 L 1973.828125 1077.026563 " style="fill:none;stroke-width:7.9701;stroke-linecap:butt;stroke-linejoin:miter;stroke:rgb(0%,0%,0%);stroke-opacity:1;stroke-miterlimit:10;" transform="matrix(0.1,0,0,-0.1,0,230.48)"></path><path d="M 14.03125 122.777344 L 19.5 124.84375 L 17.695313 122.777344 L 19.5 120.714844 " style=" stroke:none;fill-rule:nonzero;fill:rgb(0%,0%,0%);fill-opacity:1;"></path><path d="M 140.3125 1077.026563 L 195 1056.3625 L 176.953125 1077.026563 L 195 1097.651563 Z M 140.3125 1077.026563 " style="fill:none;stroke-width:7.9701;stroke-linecap:butt;stroke-linejoin:miter;stroke:rgb(0%,0%,0%);stroke-opacity:1;stroke-miterlimit:10;" transform="matrix(0.1,0,0,-0.1,0,230.48)"></path><path d="M 201.242188 122.777344 L 195.773438 120.714844 L 197.578125 122.777344 L 195.773438 124.84375 " style=" stroke:none;fill-rule:nonzero;fill:rgb(0%,0%,0%);fill-opacity:1;"></path><path d="M 2012.421875 1077.026563 L 1957.734375 1097.651563 L 1975.78125 1077.026563 L 1957.734375 1056.3625 Z M 2012.421875 1077.026563 " style="fill:none;stroke-width:7.9701;stroke-linecap:butt;stroke-linejoin:miter;stroke:rgb(0%,0%,0%);stroke-opacity:1;stroke-miterlimit:10;" transform="matrix(0.1,0,0,-0.1,0,230.48)"></path><path d="M 210.015625 122.054688 L 209.980469 122.054688 L 209.847656 121.484375 C 209.691406 120.886719 209.476563 120.390625 209.210938 120.078125 L 209.042969 120.078125 L 207.492188 120.261719 L 207.492188 120.59375 C 207.492188 120.59375 207.660156 120.5625 207.839844 120.5625 C 208.574219 120.550781 208.765625 120.851563 209.066406 121.789063 L 209.378906 122.804688 L 208.574219 123.972656 C 208.140625 124.597656 207.9375 124.609375 207.894531 124.609375 C 207.703125 124.609375 207.4375 124.464844 207.191406 124.464844 C 206.921875 124.464844 206.757813 124.710938 206.757813 124.933594 C 206.757813 125.214844 206.921875 125.480469 207.402344 125.480469 C 208.074219 125.480469 208.441406 124.957031 208.796875 124.375 L 209.511719 123.214844 L 209.554688 123.214844 L 209.835938 124.34375 C 209.992188 125.066406 210.238281 125.492188 210.75 125.492188 C 211.507813 125.492188 211.976563 124.734375 212.300781 124.242188 L 212.066406 124.0625 C 211.765625 124.464844 211.554688 124.6875 211.265625 124.6875 C 210.917969 124.6875 210.695313 124.273438 210.382813 123.25 L 210.148438 122.492188 L 210.828125 121.40625 C 211.019531 121.097656 211.175781 120.9375 211.429688 120.9375 C 211.578125 120.9375 211.832031 121.050781 212.011719 121.050781 C 212.3125 121.050781 212.523438 120.792969 212.523438 120.527344 C 212.523438 120.214844 212.390625 120.035156 211.96875 120.035156 C 211.308594 120.035156 210.863281 120.582031 210.5625 121.117188 L 210.015625 122.054688 " style=" stroke:none;fill-rule:nonzero;fill:rgb(0%,0%,0%);fill-opacity:1;"></path><path d="M 1076.367188 179.604688 L 1076.367188 1974.448438 " style="fill:none;stroke-width:7.9701;stroke-linecap:butt;stroke-linejoin:miter;stroke:rgb(0%,0%,0%);stroke-opacity:1;stroke-miterlimit:10;" transform="matrix(0.1,0,0,-0.1,0,230.48)"></path><path d="M 107.636719 216.382813 L 109.703125 210.914063 L 107.636719 212.71875 L 105.574219 210.914063 " style=" stroke:none;fill-rule:nonzero;fill:rgb(0%,0%,0%);fill-opacity:1;"></path><path d="M 1076.367188 140.971875 L 1097.03125 195.659375 L 1076.367188 177.6125 L 1055.742188 195.659375 Z M 1076.367188 140.971875 " style="fill:none;stroke-width:7.9701;stroke-linecap:butt;stroke-linejoin:miter;stroke:rgb(0%,0%,0%);stroke-opacity:1;stroke-miterlimit:10;" transform="matrix(0.1,0,0,-0.1,0,230.48)"></path><path d="M 107.636719 29.171875 L 105.574219 34.640625 L 107.636719 32.835938 L 109.703125 34.640625 " style=" stroke:none;fill-rule:nonzero;fill:rgb(0%,0%,0%);fill-opacity:1;"></path><path d="M 1076.367188 2013.08125 L 1055.742188 1958.39375 L 1076.367188 1976.440625 L 1097.03125 1958.39375 Z M 1076.367188 2013.08125 " style="fill:none;stroke-width:7.9701;stroke-linecap:butt;stroke-linejoin:miter;stroke:rgb(0%,0%,0%);stroke-opacity:1;stroke-miterlimit:10;" transform="matrix(0.1,0,0,-0.1,0,230.48)"></path><path d="M 107.601563 18.054688 C 107.464844 17.160156 107.386719 16.804688 107.140625 16.378906 L 106.976563 16.378906 L 105.390625 16.503906 L 105.390625 16.828125 C 105.390625 16.828125 105.625 16.804688 105.78125 16.804688 C 106.464844 16.804688 106.519531 17.351563 106.597656 17.851563 L 107.253906 21.78125 C 106.941406 22.261719 106.140625 23.320313 105.925781 23.320313 C 105.679688 23.320313 105.558594 22.726563 105.132813 22.726563 C 104.878906 22.726563 104.699219 22.875 104.699219 23.207031 C 104.699219 23.621094 105.089844 23.933594 105.558594 23.933594 C 106.40625 23.933594 107.1875 22.671875 108.023438 21.511719 C 108.605469 20.710938 109.242188 19.75 109.84375 18.6875 C 110.199219 18.089844 110.332031 17.585938 110.332031 17.148438 C 110.332031 16.671875 110.042969 16.300781 109.632813 16.300781 C 109.308594 16.300781 109.140625 16.503906 109.140625 16.738281 C 109.140625 17.160156 109.6875 17.472656 109.6875 17.765625 C 109.6875 18.03125 109.585938 18.300781 109.320313 18.734375 L 108.035156 20.800781 L 107.96875 20.800781 L 107.867188 19.683594 L 107.601563 18.054688 " style=" stroke:none;fill-rule:nonzero;fill:rgb(0%,0%,0%);fill-opacity:1;"></path><path d="M 318.476563 1058.471875 L 318.476563 1095.58125 " style="fill:none;stroke-width:7.9701;stroke-linecap:butt;stroke-linejoin:miter;stroke:rgb(0%,0%,0%);stroke-opacity:1;stroke-miterlimit:10;" transform="matrix(0.1,0,0,-0.1,0,230.48)"></path><path d="M 25.691406 131.667969 L 32.339844 131.667969 L 32.339844 130.910156 L 25.691406 130.910156 Z M 25.691406 131.667969 " style=" stroke:none;fill-rule:nonzero;fill:rgb(0%,0%,0%);fill-opacity:1;"></path><path d="M 38.464844 132.417969 L 38.464844 131.648438 L 37.328125 131.648438 L 37.328125 126.984375 L 36.648438 126.984375 L 33.246094 131.714844 L 33.246094 132.417969 L 36.335938 132.417969 L 36.335938 134.179688 L 37.328125 134.179688 L 37.328125 132.417969 Z M 36.335938 131.648438 L 33.859375 131.648438 L 33.859375 131.601563 L 36.289063 128.199219 L 36.335938 128.199219 L 36.335938 131.648438 " style=" stroke:none;fill-rule:nonzero;fill:rgb(0%,0%,0%);fill-opacity:1;"></path><path d="M 507.929688 1058.471875 L 507.929688 1095.58125 " style="fill:none;stroke-width:7.9701;stroke-linecap:butt;stroke-linejoin:miter;stroke:rgb(0%,0%,0%);stroke-opacity:1;stroke-miterlimit:10;" transform="matrix(0.1,0,0,-0.1,0,230.48)"></path><path d="M 44.691406 131.570313 L 51.339844 131.570313 L 51.339844 130.8125 L 44.691406 130.8125 Z M 44.691406 131.570313 " style=" stroke:none;fill-rule:nonzero;fill:rgb(0%,0%,0%);fill-opacity:1;"></path><path d="M 53.058594 128.523438 C 53.4375 127.933594 53.851563 127.621094 54.519531 127.621094 C 55.210938 127.621094 55.660156 128 55.660156 128.65625 C 55.660156 129.5625 54.867188 130.175781 54.109375 130.175781 L 53.898438 130.175781 L 53.898438 130.597656 L 54.117188 130.597656 C 55.191406 130.597656 56.140625 131.257813 56.140625 132.25 C 56.140625 133.34375 55.457031 133.667969 54.753906 133.667969 C 54.488281 133.667969 54.332031 133.621094 53.851563 133.375 C 53.460938 133.175781 53.371094 133.121094 53.195313 133.121094 C 52.902344 133.121094 52.757813 133.375 52.757813 133.609375 C 52.757813 133.902344 53.003906 134.226563 54.007813 134.226563 C 55.636719 134.226563 57.054688 133.445313 57.054688 131.914063 C 57.054688 130.921875 56.304688 130.332031 55.414063 130.050781 L 55.414063 130.019531 C 56.117188 129.570313 56.617188 129.160156 56.617188 128.390625 C 56.617188 127.542969 55.960938 126.894531 54.820313 126.894531 C 53.90625 126.894531 53.214844 127.40625 52.804688 128.378906 L 53.058594 128.523438 " style=" stroke:none;fill-rule:nonzero;fill:rgb(0%,0%,0%);fill-opacity:1;"></path><path d="M 697.421875 1058.471875 L 697.421875 1095.58125 " style="fill:none;stroke-width:7.9701;stroke-linecap:butt;stroke-linejoin:miter;stroke:rgb(0%,0%,0%);stroke-opacity:1;stroke-miterlimit:10;" transform="matrix(0.1,0,0,-0.1,0,230.48)"></path><path d="M 63.59375 131.570313 L 70.242188 131.570313 L 70.242188 130.8125 L 63.59375 130.8125 Z M 63.59375 131.570313 " style=" stroke:none;fill-rule:nonzero;fill:rgb(0%,0%,0%);fill-opacity:1;"></path><path d="M 76.175781 132.296875 L 75.851563 132.296875 C 75.597656 132.964844 75.453125 133.199219 74.859375 133.199219 L 73.308594 133.199219 L 72.527344 133.230469 L 72.527344 133.175781 L 74 131.78125 C 75.183594 130.585938 75.820313 129.820313 75.820313 128.824219 C 75.820313 127.652344 74.9375 126.894531 73.679688 126.894531 C 72.59375 126.894531 71.835938 127.519531 71.492188 128.601563 L 71.757813 128.714844 C 72.171875 127.878906 72.664063 127.621094 73.386719 127.621094 C 74.246094 127.621094 74.78125 128.15625 74.78125 128.992188 C 74.78125 130.164063 74.222656 130.867188 73.121094 132.003906 L 71.421875 133.699219 L 71.421875 134.078125 L 75.820313 134.078125 L 76.175781 132.296875 " style=" stroke:none;fill-rule:nonzero;fill:rgb(0%,0%,0%);fill-opacity:1;"></path><path d="M 886.914063 1058.471875 L 886.914063 1095.58125 " style="fill:none;stroke-width:7.9701;stroke-linecap:butt;stroke-linejoin:miter;stroke:rgb(0%,0%,0%);stroke-opacity:1;stroke-miterlimit:10;" transform="matrix(0.1,0,0,-0.1,0,230.48)"></path><path d="M 82.59375 131.570313 L 89.242188 131.570313 L 89.242188 130.8125 L 82.59375 130.8125 Z M 82.59375 131.570313 " style=" stroke:none;fill-rule:nonzero;fill:rgb(0%,0%,0%);fill-opacity:1;"></path><path d="M 94.753906 134.078125 L 94.753906 133.765625 C 93.726563 133.765625 93.3125 133.566406 93.3125 133.019531 L 93.3125 126.953125 L 92.992188 126.953125 L 90.824219 127.5625 L 90.824219 127.933594 C 91.171875 127.820313 91.742188 127.753906 91.964844 127.753906 C 92.242188 127.753906 92.332031 127.910156 92.332031 128.300781 L 92.332031 133.019531 C 92.332031 133.578125 91.941406 133.765625 90.890625 133.765625 L 90.890625 134.078125 L 94.753906 134.078125 " style=" stroke:none;fill-rule:nonzero;fill:rgb(0%,0%,0%);fill-opacity:1;"></path><path d="M 1265.859375 1058.471875 L 1265.859375 1095.58125 " style="fill:none;stroke-width:7.9701;stroke-linecap:butt;stroke-linejoin:miter;stroke:rgb(0%,0%,0%);stroke-opacity:1;stroke-miterlimit:10;" transform="matrix(0.1,0,0,-0.1,0,230.48)"></path><path d="M 128.554688 134.078125 L 128.554688 133.765625 C 127.527344 133.765625 127.113281 133.566406 127.113281 133.019531 L 127.113281 126.953125 L 126.789063 126.953125 L 124.625 127.5625 L 124.625 127.933594 C 124.972656 127.820313 125.539063 127.753906 125.765625 127.753906 C 126.042969 127.753906 126.132813 127.910156 126.132813 128.300781 L 126.132813 133.019531 C 126.132813 133.578125 125.742188 133.765625 124.691406 133.765625 L 124.691406 134.078125 L 128.554688 134.078125 " style=" stroke:none;fill-rule:nonzero;fill:rgb(0%,0%,0%);fill-opacity:1;"></path><path d="M 1455.351563 1058.471875 L 1455.351563 1095.58125 " style="fill:none;stroke-width:7.9701;stroke-linecap:butt;stroke-linejoin:miter;stroke:rgb(0%,0%,0%);stroke-opacity:1;stroke-miterlimit:10;" transform="matrix(0.1,0,0,-0.1,0,230.48)"></path><path d="M 147.976563 132.296875 L 147.652344 132.296875 C 147.398438 132.964844 147.253906 133.199219 146.660156 133.199219 L 145.109375 133.199219 L 144.328125 133.230469 L 144.328125 133.175781 L 145.800781 131.78125 C 146.984375 130.585938 147.617188 129.820313 147.617188 128.824219 C 147.617188 127.652344 146.738281 126.894531 145.476563 126.894531 C 144.394531 126.894531 143.636719 127.519531 143.289063 128.601563 L 143.558594 128.714844 C 143.972656 127.878906 144.464844 127.621094 145.1875 127.621094 C 146.046875 127.621094 146.582031 128.15625 146.582031 128.992188 C 146.582031 130.164063 146.023438 130.867188 144.921875 132.003906 L 143.222656 133.699219 L 143.222656 134.078125 L 147.617188 134.078125 L 147.976563 132.296875 " style=" stroke:none;fill-rule:nonzero;fill:rgb(0%,0%,0%);fill-opacity:1;"></path><path d="M 1644.804688 1058.471875 L 1644.804688 1095.58125 " style="fill:none;stroke-width:7.9701;stroke-linecap:butt;stroke-linejoin:miter;stroke:rgb(0%,0%,0%);stroke-opacity:1;stroke-miterlimit:10;" transform="matrix(0.1,0,0,-0.1,0,230.48)"></path><path d="M 162.660156 128.523438 C 163.039063 127.933594 163.453125 127.621094 164.121094 127.621094 C 164.8125 127.621094 165.257813 128 165.257813 128.65625 C 165.257813 129.5625 164.46875 130.175781 163.707031 130.175781 L 163.496094 130.175781 L 163.496094 130.597656 L 163.71875 130.597656 C 164.789063 130.597656 165.738281 131.257813 165.738281 132.25 C 165.738281 133.34375 165.058594 133.667969 164.355469 133.667969 C 164.089844 133.667969 163.929688 133.621094 163.453125 133.375 C 163.0625 133.175781 162.972656 133.121094 162.792969 133.121094 C 162.503906 133.121094 162.359375 133.375 162.359375 133.609375 C 162.359375 133.902344 162.601563 134.226563 163.609375 134.226563 C 165.234375 134.226563 166.652344 133.445313 166.652344 131.914063 C 166.652344 130.921875 165.90625 130.332031 165.015625 130.050781 L 165.015625 130.019531 C 165.714844 129.570313 166.21875 129.160156 166.21875 128.390625 C 166.21875 127.542969 165.558594 126.894531 164.421875 126.894531 C 163.507813 126.894531 162.816406 127.40625 162.402344 128.378906 L 162.660156 128.523438 " style=" stroke:none;fill-rule:nonzero;fill:rgb(0%,0%,0%);fill-opacity:1;"></path><path d="M 1834.296875 1058.471875 L 1834.296875 1095.58125 " style="fill:none;stroke-width:7.9701;stroke-linecap:butt;stroke-linejoin:miter;stroke:rgb(0%,0%,0%);stroke-opacity:1;stroke-miterlimit:10;" transform="matrix(0.1,0,0,-0.1,0,230.48)"></path><path d="M 186.066406 132.417969 L 186.066406 131.648438 L 184.929688 131.648438 L 184.929688 126.984375 L 184.246094 126.984375 L 180.84375 131.714844 L 180.84375 132.417969 L 183.9375 132.417969 L 183.9375 134.179688 L 184.929688 134.179688 L 184.929688 132.417969 Z M 183.9375 131.648438 L 181.460938 131.648438 L 181.460938 131.601563 L 183.890625 128.199219 L 183.9375 128.199219 L 183.9375 131.648438 " style=" stroke:none;fill-rule:nonzero;fill:rgb(0%,0%,0%);fill-opacity:1;"></path><path d="M 1057.8125 319.096875 L 1094.921875 319.096875 " style="fill:none;stroke-width:7.9701;stroke-linecap:butt;stroke-linejoin:miter;stroke:rgb(0%,0%,0%);stroke-opacity:1;stroke-miterlimit:10;" transform="matrix(0.1,0,0,-0.1,0,230.48)"></path><path d="M 90.59375 198.667969 L 97.242188 198.667969 L 97.242188 197.910156 L 90.59375 197.910156 Z M 90.59375 198.667969 " style=" stroke:none;fill-rule:nonzero;fill:rgb(0%,0%,0%);fill-opacity:1;"></path><path d="M 103.367188 199.417969 L 103.367188 198.648438 L 102.226563 198.648438 L 102.226563 193.984375 L 101.546875 193.984375 L 98.144531 198.714844 L 98.144531 199.417969 L 101.234375 199.417969 L 101.234375 201.179688 L 102.226563 201.179688 L 102.226563 199.417969 Z M 101.234375 198.648438 L 98.757813 198.648438 L 98.757813 198.601563 L 101.191406 195.199219 L 101.234375 195.199219 L 101.234375 198.648438 " style=" stroke:none;fill-rule:nonzero;fill:rgb(0%,0%,0%);fill-opacity:1;"></path><path d="M 1057.8125 508.589063 L 1094.921875 508.589063 " style="fill:none;stroke-width:7.9701;stroke-linecap:butt;stroke-linejoin:miter;stroke:rgb(0%,0%,0%);stroke-opacity:1;stroke-miterlimit:10;" transform="matrix(0.1,0,0,-0.1,0,230.48)"></path><path d="M 90.59375 179.769531 L 97.242188 179.769531 L 97.242188 179.011719 L 90.59375 179.011719 Z M 90.59375 179.769531 " style=" stroke:none;fill-rule:nonzero;fill:rgb(0%,0%,0%);fill-opacity:1;"></path><path d="M 98.960938 176.722656 C 99.339844 176.132813 99.75 175.820313 100.421875 175.820313 C 101.113281 175.820313 101.558594 176.199219 101.558594 176.859375 C 101.558594 177.761719 100.765625 178.375 100.007813 178.375 L 99.796875 178.375 L 99.796875 178.796875 L 100.019531 178.796875 C 101.089844 178.796875 102.039063 179.457031 102.039063 180.449219 C 102.039063 181.542969 101.359375 181.867188 100.65625 181.867188 C 100.386719 181.867188 100.230469 181.820313 99.75 181.578125 C 99.359375 181.375 99.273438 181.320313 99.09375 181.320313 C 98.804688 181.320313 98.65625 181.578125 98.65625 181.8125 C 98.65625 182.101563 98.902344 182.425781 99.90625 182.425781 C 101.535156 182.425781 102.953125 181.644531 102.953125 180.117188 C 102.953125 179.121094 102.207031 178.53125 101.3125 178.25 L 101.3125 178.21875 C 102.015625 177.773438 102.519531 177.359375 102.519531 176.589844 C 102.519531 175.742188 101.859375 175.09375 100.722656 175.09375 C 99.808594 175.09375 99.117188 175.609375 98.703125 176.578125 L 98.960938 176.722656 " style=" stroke:none;fill-rule:nonzero;fill:rgb(0%,0%,0%);fill-opacity:1;"></path><path d="M 1057.8125 698.042188 L 1094.921875 698.042188 " style="fill:none;stroke-width:7.9701;stroke-linecap:butt;stroke-linejoin:miter;stroke:rgb(0%,0%,0%);stroke-opacity:1;stroke-miterlimit:10;" transform="matrix(0.1,0,0,-0.1,0,230.48)"></path><path d="M 90.59375 160.769531 L 97.242188 160.769531 L 97.242188 160.011719 L 90.59375 160.011719 Z M 90.59375 160.769531 " style=" stroke:none;fill-rule:nonzero;fill:rgb(0%,0%,0%);fill-opacity:1;"></path><path d="M 103.175781 161.496094 L 102.851563 161.496094 C 102.597656 162.164063 102.453125 162.398438 101.859375 162.398438 L 100.308594 162.398438 L 99.527344 162.429688 L 99.527344 162.375 L 101.003906 160.980469 C 102.183594 159.789063 102.820313 159.019531 102.820313 158.023438 C 102.820313 156.851563 101.9375 156.09375 100.679688 156.09375 C 99.59375 156.09375 98.835938 156.71875 98.492188 157.800781 L 98.757813 157.914063 C 99.171875 157.078125 99.664063 156.820313 100.386719 156.820313 C 101.246094 156.820313 101.78125 157.355469 101.78125 158.191406 C 101.78125 159.363281 101.222656 160.066406 100.121094 161.203125 L 98.421875 162.898438 L 98.421875 163.28125 L 102.820313 163.28125 L 103.175781 161.496094 " style=" stroke:none;fill-rule:nonzero;fill:rgb(0%,0%,0%);fill-opacity:1;"></path><path d="M 1057.8125 887.534375 L 1094.921875 887.534375 " style="fill:none;stroke-width:7.9701;stroke-linecap:butt;stroke-linejoin:miter;stroke:rgb(0%,0%,0%);stroke-opacity:1;stroke-miterlimit:10;" transform="matrix(0.1,0,0,-0.1,0,230.48)"></path><path d="M 90.59375 141.867188 L 97.242188 141.867188 L 97.242188 141.109375 L 90.59375 141.109375 Z M 90.59375 141.867188 " style=" stroke:none;fill-rule:nonzero;fill:rgb(0%,0%,0%);fill-opacity:1;"></path><path d="M 102.753906 144.378906 L 102.753906 144.066406 C 101.726563 144.066406 101.3125 143.867188 101.3125 143.320313 L 101.3125 137.25 L 100.992188 137.25 L 98.824219 137.863281 L 98.824219 138.234375 C 99.171875 138.121094 99.742188 138.054688 99.964844 138.054688 C 100.242188 138.054688 100.332031 138.210938 100.332031 138.601563 L 100.332031 143.320313 C 100.332031 143.878906 99.941406 144.066406 98.890625 144.066406 L 98.890625 144.378906 L 102.753906 144.378906 " style=" stroke:none;fill-rule:nonzero;fill:rgb(0%,0%,0%);fill-opacity:1;"></path><path d="M 1057.8125 1266.51875 L 1094.921875 1266.51875 " style="fill:none;stroke-width:7.9701;stroke-linecap:butt;stroke-linejoin:miter;stroke:rgb(0%,0%,0%);stroke-opacity:1;stroke-miterlimit:10;" transform="matrix(0.1,0,0,-0.1,0,230.48)"></path><path d="M 102.753906 106.480469 L 102.753906 106.167969 C 101.726563 106.167969 101.3125 105.96875 101.3125 105.421875 L 101.3125 99.351563 L 100.992188 99.351563 L 98.824219 99.964844 L 98.824219 100.332031 C 99.171875 100.222656 99.742188 100.15625 99.964844 100.15625 C 100.242188 100.15625 100.332031 100.3125 100.332031 100.699219 L 100.332031 105.421875 C 100.332031 105.976563 99.941406 106.167969 98.890625 106.167969 L 98.890625 106.480469 L 102.753906 106.480469 " style=" stroke:none;fill-rule:nonzero;fill:rgb(0%,0%,0%);fill-opacity:1;"></path><path d="M 1057.8125 1455.971875 L 1094.921875 1455.971875 " style="fill:none;stroke-width:7.9701;stroke-linecap:butt;stroke-linejoin:miter;stroke:rgb(0%,0%,0%);stroke-opacity:1;stroke-miterlimit:10;" transform="matrix(0.1,0,0,-0.1,0,230.48)"></path><path d="M 103.175781 85.796875 L 102.851563 85.796875 C 102.597656 86.464844 102.453125 86.699219 101.859375 86.699219 L 100.308594 86.699219 L 99.527344 86.730469 L 99.527344 86.675781 L 101.003906 85.28125 C 102.183594 84.089844 102.820313 83.320313 102.820313 82.324219 C 102.820313 81.152344 101.9375 80.394531 100.679688 80.394531 C 99.59375 80.394531 98.835938 81.019531 98.492188 82.101563 L 98.757813 82.214844 C 99.171875 81.378906 99.664063 81.121094 100.386719 81.121094 C 101.246094 81.121094 101.78125 81.65625 101.78125 82.492188 C 101.78125 83.664063 101.222656 84.367188 100.121094 85.503906 L 98.421875 87.199219 L 98.421875 87.578125 L 102.820313 87.578125 L 103.175781 85.796875 " style=" stroke:none;fill-rule:nonzero;fill:rgb(0%,0%,0%);fill-opacity:1;"></path><path d="M 1057.8125 1645.464063 L 1094.921875 1645.464063 " style="fill:none;stroke-width:7.9701;stroke-linecap:butt;stroke-linejoin:miter;stroke:rgb(0%,0%,0%);stroke-opacity:1;stroke-miterlimit:10;" transform="matrix(0.1,0,0,-0.1,0,230.48)"></path><path d="M 98.960938 63.023438 C 99.339844 62.433594 99.75 62.121094 100.421875 62.121094 C 101.113281 62.121094 101.558594 62.5 101.558594 63.15625 C 101.558594 64.0625 100.765625 64.675781 100.007813 64.675781 L 99.796875 64.675781 L 99.796875 65.097656 L 100.019531 65.097656 C 101.089844 65.097656 102.039063 65.757813 102.039063 66.75 C 102.039063 67.84375 101.359375 68.167969 100.65625 68.167969 C 100.386719 68.167969 100.230469 68.121094 99.75 67.878906 C 99.359375 67.675781 99.273438 67.621094 99.09375 67.621094 C 98.804688 67.621094 98.65625 67.878906 98.65625 68.109375 C 98.65625 68.402344 98.902344 68.726563 99.90625 68.726563 C 101.535156 68.726563 102.953125 67.945313 102.953125 66.414063 C 102.953125 65.421875 102.207031 64.832031 101.3125 64.550781 L 101.3125 64.519531 C 102.015625 64.070313 102.519531 63.660156 102.519531 62.890625 C 102.519531 62.042969 101.859375 61.394531 100.722656 61.394531 C 99.808594 61.394531 99.117188 61.90625 98.703125 62.878906 L 98.960938 63.023438 " style=" stroke:none;fill-rule:nonzero;fill:rgb(0%,0%,0%);fill-opacity:1;"></path><path d="M 1057.8125 1834.95625 L 1094.921875 1834.95625 " style="fill:none;stroke-width:7.9701;stroke-linecap:butt;stroke-linejoin:miter;stroke:rgb(0%,0%,0%);stroke-opacity:1;stroke-miterlimit:10;" transform="matrix(0.1,0,0,-0.1,0,230.48)"></path><path d="M 103.367188 47.917969 L 103.367188 47.148438 L 102.226563 47.148438 L 102.226563 42.484375 L 101.546875 42.484375 L 98.144531 47.214844 L 98.144531 47.917969 L 101.234375 47.917969 L 101.234375 49.679688 L 102.226563 49.679688 L 102.226563 47.917969 Z M 101.234375 47.148438 L 98.757813 47.148438 L 98.757813 47.101563 L 101.191406 43.699219 L 101.234375 43.699219 L 101.234375 47.148438 " style=" stroke:none;fill-rule:nonzero;fill:rgb(0%,0%,0%);fill-opacity:1;"></path><g clip-path="url(#svg463157403450tikz_00001clip1)" clip-rule="nonzero"><path d="M 267.304688 130.971875 L 284.179688 222.3 L 301.09375 309.565625 L 318.007813 392.76875 L 334.921875 472.065625 L 351.835938 547.573438 L 368.75 619.253125 L 385.664063 687.3 L 402.539063 751.714063 L 419.453125 812.6125 L 436.367188 870.073438 L 453.28125 924.175 L 470.195313 974.995313 L 487.109375 1022.6125 L 504.023438 1067.104688 L 520.898438 1108.589063 L 537.8125 1147.104688 L 554.726563 1182.729688 L 571.640625 1215.58125 L 588.554688 1245.698438 L 605.46875 1273.198438 L 622.34375 1298.159375 L 639.257813 1320.659375 L 656.171875 1340.7375 L 673.085938 1358.510938 L 690 1374.057813 L 706.914063 1387.45625 L 723.828125 1398.784375 L 740.703125 1408.120313 L 757.617188 1415.58125 L 774.53125 1421.20625 L 791.445313 1425.073438 L 808.359375 1427.260938 L 825.273438 1427.925 L 842.1875 1427.026563 L 859.0625 1424.721875 L 875.976563 1421.089063 L 892.890625 1416.20625 L 909.804688 1410.1125 L 926.71875 1402.964063 L 943.632813 1394.8 L 960.507813 1385.659375 L 977.421875 1375.698438 L 994.335938 1364.917188 L 1011.25 1353.471875 L 1028.164063 1341.440625 L 1045.078125 1328.823438 L 1061.953125 1315.815625 L 1078.867188 1302.417188 L 1095.78125 1288.70625 L 1112.695313 1274.760938 L 1129.609375 1260.7375 L 1163.4375 1232.6125 L 1180.3125 1218.667188 L 1197.226563 1204.917188 L 1214.140625 1191.440625 L 1231.054688 1178.315625 L 1247.96875 1165.659375 L 1264.882813 1153.510938 L 1281.796875 1141.948438 L 1298.671875 1131.089063 L 1315.585938 1120.932813 L 1332.5 1111.675 L 1349.414063 1103.315625 L 1366.328125 1095.971875 L 1383.242188 1089.682813 L 1400.15625 1084.604688 L 1417.03125 1080.7375 L 1433.945313 1078.198438 L 1450.859375 1077.065625 L 1467.773438 1077.417188 L 1484.6875 1079.370313 L 1501.5625 1082.925 L 1518.476563 1088.2375 L 1535.390625 1095.385938 L 1552.304688 1104.370313 L 1569.21875 1115.346875 L 1586.132813 1128.39375 L 1603.046875 1143.55 L 1619.921875 1160.932813 L 1636.835938 1180.620313 L 1653.75 1202.651563 L 1670.664063 1227.182813 L 1687.578125 1254.214063 L 1704.492188 1283.901563 L 1721.40625 1316.284375 L 1738.28125 1351.440625 L 1755.195313 1389.409375 L 1772.109375 1430.346875 L 1789.023438 1474.33125 L 1805.9375 1521.401563 L 1822.851563 1571.675 L 1839.765625 1625.190625 L 1856.640625 1682.065625 L 1873.554688 1742.339063 L 1890.46875 1806.167188 L 1907.382813 1873.55 L 1924.296875 1944.604688 L 1941.210938 2019.448438 " style="fill:none;stroke-width:11.9553;stroke-linecap:butt;stroke-linejoin:miter;stroke:rgb(33.325195%,64.256287%,87.889099%);stroke-opacity:1;stroke-miterlimit:10;" transform="matrix(0.1,0,0,-0.1,0,230.48)"></path></g></g></svg>